<svg width="48" height="48" viewBox="0 0 48 48" fill="none" xmlns="http://www.w3.org/2000/svg">
<path d="M36.75 0H11.25C5.0368 0 0 5.0368 0 11.25V36.75C0 42.9632 5.0368 48 11.25 48H36.75C42.9632 48 48 42.9632 48 36.75V11.25C48 5.0368 42.9632 0 36.75 0Z" fill="#F03C2E"/>
<mask id="mask0_14_184" style="mask-type:luminance" maskUnits="userSpaceOnUse" x="5" y="5" width="38" height="38">
<path d="M5.25 5.25H42.75V42.75H5.25V5.25Z" fill="white"/>
</mask>
<g mask="url(#mask0_14_184)">
<path d="M42.042 22.3301L25.6696 5.95781C25.3321 5.61988 24.9018 5.38973 24.4334 5.2965C23.9649 5.20328 23.4793 5.25117 23.0381 5.43413C22.7452 5.55566 22.4791 5.7336 22.2549 5.95781L18.8565 9.35625L23.169 13.6687C24.1721 13.3172 25.3205 13.5574 26.1196 14.3567C26.5001 14.7378 26.7657 15.2182 26.8861 15.7431C27.0065 16.268 26.9768 16.8162 26.8005 17.325L30.9571 21.4817C31.9627 21.1348 33.1228 21.3585 33.9255 22.1636C34.3276 22.5655 34.6014 23.0777 34.7122 23.6353C34.8231 24.1929 34.766 24.7709 34.5481 25.296C34.2562 26.0001 33.6966 26.5593 32.9923 26.8509C32.2881 27.1425 31.4969 27.1425 30.7927 26.8509C30.444 26.7064 30.1271 26.4947 29.8603 26.2277C29.0165 25.3839 28.808 24.1417 29.2346 23.1022L25.358 19.2257V29.427C25.6394 29.5662 25.8966 29.7498 26.1196 29.9707C26.6586 30.5097 26.9613 31.2406 26.9613 32.0028C26.9613 32.7649 26.6586 33.4959 26.1196 34.0348C25.5807 34.5737 24.8498 34.8765 24.0876 34.8765C23.3255 34.8765 22.5945 34.5737 22.0556 34.0348C21.6534 33.6331 21.3794 33.121 21.2684 32.5635C21.1574 32.0059 21.2143 31.428 21.432 30.9028C21.5765 30.5541 21.7884 30.2374 22.0556 29.9707C22.3333 29.6942 22.6415 29.4844 22.9966 29.3437V19.0476C22.6442 18.9036 22.3243 18.6904 22.0556 18.4207C21.6521 18.0177 21.3778 17.5036 21.2676 16.944C21.1574 16.3845 21.2163 15.8048 21.4368 15.2788L17.183 11.0276L5.95646 22.2424C5.61849 22.5801 5.3883 23.0105 5.29501 23.4791C5.20173 23.9477 5.24954 24.4335 5.4324 24.8749C5.554 25.1679 5.73207 25.4341 5.95646 25.6584L22.3299 42.0294C22.5541 42.2536 22.8202 42.4316 23.1131 42.5531C23.7049 42.7978 24.3696 42.7978 24.9615 42.5531C25.2543 42.4316 25.5204 42.2536 25.7446 42.0294L42.042 25.758C42.2664 25.5338 42.4444 25.2675 42.5659 24.9745C42.6874 24.6814 42.7499 24.3673 42.75 24.0501C42.7499 23.7328 42.6874 23.4186 42.5659 23.1256C42.4444 22.8325 42.2664 22.5662 42.042 22.3419" fill="white"/>
</g>
</svg>
